<svg width="46" height="45" viewBox="0 0 46 45" fill="none" xmlns="http://www.w3.org/2000/svg">
<g clip-path="url(#clip0_105_353)">
<path d="M23.0264 0C10.5986 0 0.526367 10.0723 0.526367 22.5C0.526367 34.9277 10.5986 45 23.0264 45C35.4541 45 45.5264 34.9277 45.5264 22.5C45.5264 10.0723 35.4541 0 23.0264 0ZM23.8262 12.4893C24.6523 11.4873 26.0586 10.7227 27.2627 10.6348C27.4648 12.0059 26.9023 13.3418 26.1641 14.291C25.373 15.3105 24.0107 16.0928 22.6924 16.0488C22.4639 14.7393 23.0791 13.3945 23.8262 12.4893ZM31.2354 29.874C30.2861 31.3154 28.9502 33.1172 27.2891 33.1348C25.8125 33.1523 25.4346 32.1768 23.4395 32.1855C21.4443 32.1943 21.0225 33.1523 19.5459 33.1348C17.8848 33.1172 16.6191 31.4912 15.6699 30.0498C13.0156 26.0068 12.7344 21.2695 14.3779 18.7471C15.5381 16.9541 17.375 15.9082 19.1064 15.9082C20.8643 15.9082 21.9629 16.875 23.4219 16.875C24.8281 16.875 25.6895 15.9082 27.7197 15.9082C29.2578 15.9082 30.8838 16.7432 32.0439 18.1934C28.2471 20.2764 28.8623 25.6992 32.7031 27.1494C32.167 28.3096 31.9121 28.8369 31.2354 29.874Z" fill="black"/>
</g>
<defs>
<clipPath id="clip0_105_353">
<rect width="45" height="45" fill="white" transform="translate(0.526367)"/>
</clipPath>
</defs>
</svg>
