<svg width="45" height="45" viewBox="0 0 45 45" fill="none" xmlns="http://www.w3.org/2000/svg">
<path d="M42.1895 22.9372C42.1895 21.3185 42.0555 20.1372 41.7654 18.9122H22.9038V26.2184H33.9752C33.752 28.0342 32.5466 30.7685 29.868 32.6059L29.8304 32.8506L35.7942 37.3781L36.2074 37.4185C40.002 33.9841 42.1895 28.9309 42.1895 22.9372Z" fill="#4285F4"/>
<path d="M22.9027 42.1872C28.3268 42.1872 32.8802 40.4371 36.2062 37.4183L29.8669 32.6057C28.1705 33.7652 25.8937 34.5745 22.9027 34.5745C17.5903 34.5745 13.0814 31.1401 11.4741 26.3933L11.2385 26.4129L5.0374 31.1161L4.9563 31.337C8.25983 37.7682 15.0456 42.1872 22.9027 42.1872Z" fill="#34A853"/>
<path d="M11.4746 26.3939C11.0505 25.169 10.805 23.8564 10.805 22.5002C10.805 21.1438 11.0505 19.8314 11.4523 18.6064L11.441 18.3454L5.16219 13.5668L4.95677 13.6625C3.59522 16.3314 2.81396 19.3282 2.81396 22.5002C2.81396 25.672 3.59522 28.6688 4.95677 31.3376L11.4746 26.3939Z" fill="#FBBC05"/>
<path d="M22.9028 10.425C26.6751 10.425 29.2197 12.0218 30.6707 13.3563L36.3403 7.93125C32.8583 4.75938 28.3269 2.8125 22.9028 2.8125C15.0456 2.8125 8.25985 7.23122 4.9563 13.6624L11.4518 18.6062C13.0814 13.8594 17.5903 10.425 22.9028 10.425Z" fill="#EB4335"/>
</svg>
