<svg width="45" height="45" viewBox="0 0 45 45" fill="none" xmlns="http://www.w3.org/2000/svg">
<path d="M22.5 0C10.0735 0 0 10.0735 0 22.5C0 34.9265 10.0735 45 22.5 45C34.9265 45 45 34.9265 45 22.5C45 10.0735 34.9265 0 22.5 0Z" fill="#40B3E0"/>
<path d="M33.4482 12.9429L29.4294 33.2047C29.4294 33.2047 28.8675 34.6099 27.3218 33.9354L18.048 26.8254L14.6758 25.1956L8.9991 23.2845C8.9991 23.2845 8.12792 22.9754 8.04355 22.301C7.95935 21.6265 9.02722 21.2612 9.02722 21.2612L31.5933 12.4089C31.5933 12.4089 33.4482 11.594 33.4482 12.9429Z" fill="white"/>
<path d="M17.3352 32.9771C17.3352 32.9771 17.0645 32.9518 16.7271 31.8837C16.39 30.8159 14.6758 25.1954 14.6758 25.1954L28.3053 16.54C28.3053 16.54 29.0923 16.0622 29.0642 16.54C29.0642 16.54 29.2046 16.6242 28.7831 17.0176C28.3616 17.4112 18.0761 26.6567 18.0761 26.6567" fill="#D2E5F1"/>
<path d="M21.6036 29.5516L17.9354 32.896C17.9354 32.896 17.6487 33.1136 17.335 32.9772L18.0374 26.7649" fill="#B5CFE4"/>
</svg>
